HIERARCHY
ROOT Spine
{
    OFFSET 0.0 0.0 -0.0
    CHANNELS 6 Xposition Yposition Zposition Zrotation Xrotation Yrotation
    JOINT ShoulderCenter
    {
        OFFSET 0.0 31.816110610961914 0.0
        CHANNELS 3 Zrotation Xrotation Yrotation
        JOINT LeftShoulder
        {
            OFFSET 18.286205291748047 0.0 0.0
            CHANNELS 3 Zrotation Xrotation Yrotation
            JOINT LeftElbow
            {
                OFFSET 27.89105224609375 0.0 0.0
                CHANNELS 3 Zrotation Xrotation Yrotation
                JOINT LeftHand
                {
                    OFFSET 29.785259246826172 0.0 0.0
                    CHANNELS 3 Zrotation Xrotation Yrotation
                    End Site
                    {
                        OFFSET 11.914104461669922 0.0 0.0
                    }
                }
            }
        }
        JOINT RightShoulder
        {
            OFFSET -18.286205291748047 0.0 0.0
            CHANNELS 3 Zrotation Xrotation Yrotation
            JOINT RightElbow
            {
                OFFSET -27.89105224609375 0.0 0.0
                CHANNELS 3 Zrotation Xrotation Yrotation
                JOINT RightHand
                {
                    OFFSET -29.785259246826172 0.0 0.0
                    CHANNELS 3 Zrotation Xrotation Yrotation
                    End Site
                    {
                        OFFSET -11.914104461669922 0.0 0.0
                    }
                }
            }
        }
        End Site
        {
            OFFSET 0.0 12.726445198059082 0.0
        }
    }
    JOINT LeftHip
    {
        OFFSET 16.547243848131178 -16.547243848131178 0.0
        CHANNELS 3 Zrotation Xrotation Yrotation
        JOINT LeftKnee
        {
            OFFSET 0.0 -39.41718292236328 0.0
            CHANNELS 3 Zrotation Xrotation Yrotation
            JOINT LeftFoot
            {
                OFFSET 0.0 -42.90626907348633 0.0
                CHANNELS 3 Zrotation Xrotation Yrotation
                End Site
                {
                    OFFSET 0.0 0.0 17.162506103515625
                }
            }
        }
    }
    JOINT RightHip
    {
        OFFSET -16.547243848131178 -16.547243848131178 0.0
        CHANNELS 3 Zrotation Xrotation Yrotation
        JOINT RightKnee
        {
            OFFSET 0.0 -39.41718292236328 0.0
            CHANNELS 3 Zrotation Xrotation Yrotation
            JOINT RightFoot
            {
                OFFSET 0.0 -42.90626907348633 0.0
                CHANNELS 3 Zrotation Xrotation Yrotation
                End Site
                {
                    OFFSET 0.0 0.0 17.162506103515625
                }
            }
        }
    }
}
MOTION
Frames: 10
Frame Time: 0.03333333333333333
45.89999771118164 2.0999999046325684 -48.69999694824219 -1.9873883923767588 3.2479395374367397 -5.222158247582959 7.771555780760503e-08 -1.0277590994811433e-07 7.094331233767074 98.96887122459478 43.763346345215375 168.27843074921577 -3.3486470385793097e-06 -1.0198280655489877e-06 14.756791424810805 -7.951386703658792e-15 6.3611093629270335e-15 3.1805546814635176e-15 -90.9328227778796 17.299499999093964 -165.4245743197253 2.5761657971109947e-06 -4.981600386400763e-06 -36.52287248449955 4.07508568562513e-15 0.0 0.0 -1.4161606732814378 -18.88613169075835 12.804863216033194 3.5325664551563527 15.663199951124628 -27.722948544581183 0.0 0.0 7.334067130474345e-16 5.264632646035915 -22.322444725166477 -21.838772678760154 -37.7981447710205 54.793671311026074 100.81383261302143 0.0 0.0 1.5902773407317582e-15
46.099998474121094 2.299999952316284 -43.099998474121094 -1.0809283534126202 3.2391236207173324 -4.369107707392275 1.1853696616993895e-08 -6.379487558140943e-08 5.464407614150973 92.91567292162551 32.7392575774988 175.60102405579883 5.960849996697922e-07 -5.080963339406067e-06 18.38691697164551 6.3611093629270335e-15 0.0 0.0 -94.3335553178301 27.758120298810095 -162.1995742405555 5.640468012027001e-07 -3.0103714978760213e-07 -26.45654020478334 -7.95138670365879e-16 -1.1034765745125397e-32 1.590277340731758e-15 -3.0590227197024826 -14.183891107707728 3.4997581468044503 0.7775996936707329 14.492068613858315 -23.121483877555928 0.0 0.0 -1.2921003393445538e-15 4.395671730993947 -29.369397505843654 -32.258610537424865 -42.74152711459297 48.36953716301876 104.69767926571038 -3.1805546814635168e-15 -1.5902773407317584e-15 7.951386703658792e-16
46.29999923706055 2.0999999046325684 -37.5 -0.361484155442391 3.610019347865508 -3.4734653065874466 -2.2223785784805224e-08 -9.890451810301993e-08 3.94142289044861 91.02038612707877 20.247086574713475 -178.9742058905027 -1.4893569378585588e-06 3.0226905394047864e-06 23.704640359883793 -5.218097524276084e-16 -3.1805546814635176e-15 -1.9878466759146984e-15 -103.17347545095501 44.99051680875936 -156.46561304969867 6.678384300943074e-07 1.55559210727221e-06 -18.464174851605716 -9.541664044390549e-15 0.0 0.0 -4.211842940849413 -9.39479364001815 -5.975508098827586 -1.899441345986463 11.9614100686895 -17.22982473883819 -7.951386703658794e-16 1.0345092886055059e-32 -1.4908850069360238e-15 4.254363399704024 -35.49910304114596 -38.465406326227026 -40.00249994979786 40.81808703577219 97.69422312085021 0.0 0.0 8.74652537402467e-15
46.39999771118164 1.7999999523162842 -31.60000228881836 0.5405088038412404 3.598612262652641 -2.9484620479352306 1.79741728549416e-08 -3.029373459549459e-08 3.1023001681518148 91.5295497531618 9.957911799646293 -175.51589203065754 1.0990130453990262e-06 -4.792064207924893e-07 31.03824168546001 -7.951386703658792e-16 -1.5902773407317584e-15 -1.1034765745125397e-32 -129.96240232267795 63.695937509820446 -133.0039463039021 -5.733741788875658e-07 -4.581789047669402e-06 -15.225441465957557 6.3611093629270335e-15 0.0 0.0 -4.863968540331208 -3.5402341459962576 -15.307164563712943 -4.133359862228312 7.651923509120205 -10.078243317540975 -1.5902773407317584e-15 -3.975693351829396e-16 1.5902773407317584e-15 4.541787263442611 -38.85122177344669 -40.12713265852423 -31.335656425514866 32.136013703910855 77.83379023568504 -1.5902773407317584e-15 1.987846675914698e-16 -3.4787316828507215e-16
46.39999771118164 2.0 -25.600000381469727 0.7229325915620041 3.969683680964008 -0.8875827010695583 1.6881974210712006e-08 5.7420064297966704e-08 0.9142264206887868 93.99135198363712 2.937274394609476 -171.53813171024925 -1.865225723882334e-06 -4.271216478091622e-07 38.26420604153128 1.5902773407317584e-15 0.0 0.0 178.01376318282124 68.8524712920261 -84.02912272400006 6.402486774084854e-07 8.444413045895009e-07 -14.910281662900607 3.1805546814635164e-15 6.3611093629270335e-15 6.3611093629270335e-15 -4.483211867116833 1.6567488467855922 -22.983811018105218 -4.330161233535919 3.5482632904182587 -4.5864759012910605 -1.9310840053969444e-32 -1.5902773407317584e-15 -1.3914926731402886e-15 4.078835798255607 -40.287902548560076 -41.929351936554134 -19.931770030440045 21.205298851771367 46.27772250575731 0.0 -6.2120208622334304e-18 0.0
46.29999923706055 2.0 -19.600000381469727 1.0843373414658182 3.969290526720356 1.1694254061783413 4.745392770726997e-08 -2.060617857402155e-07 -1.314708662183881 96.40501882900575 -0.7901177250205867 -168.49292766418512 5.075651732291024e-07 -9.282769300053148e-07 45.98933284143242 -4.770832022195277e-15 1.3241718894150476e-31 -3.1805546814635176e-15 154.21386517992005 63.13709376555161 -62.43593640935335 1.3518120186486706e-06 -9.37359414728747e-08 -15.419369016505307 0.0 0.0 -6.361109362927032e-15 -4.641495384916414 11.560720869046358 -34.74399330415959 1.757124841715325 -6.236099869805637 8.34809640137165 -1.5902773407317588e-15 -1.9878466759146985e-16 7.951386703658794e-16 3.089000849158562 -40.6579386913351 -43.567029059082635 -10.918892444591004 10.637389863058072 19.162603460882416 -8.276074308844047e-33 -3.975693351829395e-16 -2.3854160110976368e-15
46.099998474121094 1.5 -13.500000953674316 1.6262530716592918 4.148170415424628 3.996234825774911 1.2838447225989767e-07 -3.9643029399685197e-07 -4.145847594181273 98.51432547726647 -2.7148434357664 -166.28734072427304 3.024348564313889e-06 -2.0645897568048043e-06 53.814060284523286 -6.3611093629270335e-15 3.531125038440127e-31 -6.3611093629270335e-15 156.0057335102122 60.698899151260576 -63.92629023256649 -7.891750109836048e-07 8.800603165012037e-06 -16.10670714121518 0.0 0.0 6.3611093629270335e-15 -4.7427226743926765 20.071238837873672 -42.3568194556798 9.217561214210507 -11.973410073020391 17.377889827098475 0.0 0.0 -1.2921003393445538e-15 0.216754265827508 -41.71699256732603 -48.06541527755863 -5.515839705144681 6.091701040267215 9.179617909520486 0.0 0.0 3.9756933518293955e-16
46.099998474121094 0.8999999761581421 -7.199999809265137 2.889445607870843 3.4256781629744424 5.092978177130471 -9.56663173995985e-08 -3.169635304808276e-07 -5.737525321690694 99.28187858063171 -3.370545058170823 -166.01392560775494 1.4448453345722585e-06 -1.2897459646049744e-06 59.58323979292389 0.0 0.0 0.0 151.96178514646158 57.83618600734945 -61.9405438386804 1.5995688873288718e-06 -1.5760435987387984e-06 -15.502619780089962 0.0 0.0 0.0 -5.2229248329700155 25.123001475992204 -45.70949935367645 9.594163087941217 -11.577929917583997 15.267750644719738 -3.793200724886855e-33 3.9756933518293955e-16 1.0933156717530838e-15 -1.4940853495274717 -41.6967261525773 -50.03180433690512 -6.408902614916665 7.363790732528315 11.493587053334505 -4.965644585306429e-32 -7.951386703658791e-16 -7.156248033292912e-15
46.0 0.20000000298023224 -0.7000000476837158 3.610090612566513 3.4232383014913172 4.1064885166933935 -3.861042913183683e-08 1.7123353954338236e-07 -5.052950562225482 99.13548837840037 -2.4173519411980537 -167.10820897693583 7.0727669915121226e-06 -2.061196482898614e-06 63.3838351193194 9.54166404439055e-15 0.0 0.0 148.53045378482759 57.31062107918188 -59.5069455595205 6.290686283825175e-06 1.4820400809927049e-05 -15.00823075733822 -6.3611093629270335e-15 3.1805546814635168e-15 -6.3611093629270335e-15 -5.678913628245675 28.87708370796891 -48.512521688665984 10.184298729773134 -9.903007802422005 12.4447725742681 -3.1805546814635164e-15 8.276074308844047e-32 -2.9817700138720468e-15 -0.6023873259794112 -40.880399285081026 -46.816422180299156 -10.03350612762707 10.509350045331457 18.20309134844133 -1.5902773407317582e-15 -1.1034765745125397e-32 7.951386703658791e-16
46.0 0.20000000298023224 5.900000095367432 5.063615638564274 3.0674040455555907 3.1165250433770275 -2.6240196665204364e-07 -7.054768806236558e-08 -4.247453172516713 97.27409910618549 -1.5630171464915654 -169.73035929556931 -8.628969784799281e-07 -1.300838273392995e-06 64.2355253330461 9.54166404439055e-15 0.0 0.0 146.8914016126849 58.96677782845854 -58.59259979784543 5.584525838315784e-07 -2.866497404071735e-06 -15.418258880930194 5.29668755766019e-31 -9.541664044390549e-15 6.361109362927033e-15 -6.887239195113181 23.09588809596279 -44.50583707452037 -3.288372100716119 4.953172441633911 -4.677779789168694 1.5902773407317584e-15 -3.1805546814635168e-15 2.3854160110976376e-15 -1.4256795325948493 -40.646565939292216 -46.327649494645556 -15.969023158052462 15.03665254518712 30.774469403623037 7.951386703658792e-16 9.93923337957349e-17 8.945310041616142e-16
